<svg width="1024" height="1024" viewBox="0 0 1024 1024" fill="none" xmlns="http://www.w3.org/2000/svg">
  <rect width="1024" height="1024" fill="#2196F3"/>
  <path d="M205 170C205 170 205 280 205 280L287 280C287 280 350 280 380 310C410 340 410 380 410 410C410 440 410 480 380 510C350 540 287 540 287 540L205 540L205 854L287 854L287 620L350 620C350 620 450 620 510 560C570 500 570 410 570 410C570 410 570 320 510 260C450 200 350 200 350 200L205 170Z" fill="white"/>
  <path d="M615 170L615 540L697 540L697 280L820 540L902 540L902 170L820 170L820 430L697 170L615 170Z" fill="white"/>
</svg>